# xmcd
#
# Track frame offsets:
# 150
# 15595
# 32347
# 58062
# 79782
# 109345
# 128510
# 159020
# 182317
# 205362
# 224877
#
# Disc length: 3795 seconds
#
#
# Revision: 0
# Processed by: cddbd v1.5.2PL0 Copyright (c) Steve Scherf et al.
# Submitted via: Nero 7, 11, 10, 0 
#
DISCID=8a0ed10b
DTITLE=Billy Gibson - Billy Gibson
DYEAR=1996
DGENRE=Blues
TTITLE0=What Is Love
TTITLE1=Work It Out
TTITLE2=Hey, Hey Pretty Baby
TTITLE3=I Found Out
TTITLE4=JB
TTITLE5=Darling, Please Come Home
TTITLE6=No News
TTITLE7=L.I. B Flat Blues
TTITLE8=Blues City
TTITLE9=A.M.
TTITLE10=Shortnin'
EXTD=
EXTT0=What Is Love
EXTT1=Work It Out
EXTT2=Hey, Hey Pretty Baby
EXTT3=I Found Out
EXTT4=JB
EXTT5=Darling, Please Come Home
EXTT6=No News
EXTT7=L.I. B Flat Blues
EXTT8=Blues City
EXTT9=A.M.
EXTT10=Shortnin'
PLAYORDER=
